<mxfile host="app.diagrams.net" modified="2023-10-15T18:39:43.148Z" agent="Mozilla/5.0 (Windows NT 10.0; Win64; x64) AppleWebKit/537.36 (KHTML, like Gecko) Chrome/117.0.0.0 Safari/537.36" etag="ekwwLV5ZOCTHPUWGTERt" version="22.0.4" type="device">
  <diagram id="R2lEEEUBdFMjLlhIrx00" name="Page-1">
    <mxGraphModel dx="1674" dy="1890" grid="1" gridSize="10" guides="1" tooltips="1" connect="1" arrows="1" fold="1" page="1" pageScale="1" pageWidth="850" pageHeight="1100" math="0" shadow="0" extFonts="Permanent Marker^https://fonts.googleapis.com/css?family=Permanent+Marker">
      <root>
        <mxCell id="0" />
        <mxCell id="1" parent="0" />
        <mxCell id="rzDTPgX-3D8ninCqntxf-29" value="" style="fontSize=12;html=1;endArrow=ERzeroToMany;endFill=1;rounded=0;exitX=0.681;exitY=0.996;exitDx=0;exitDy=0;exitPerimeter=0;entryX=0.432;entryY=0;entryDx=0;entryDy=0;entryPerimeter=0;" parent="1" source="WfKNFHAe2BFTTqRnDd-h-2" target="WfKNFHAe2BFTTqRnDd-h-11" edge="1">
          <mxGeometry width="100" height="100" relative="1" as="geometry">
            <mxPoint x="470" y="190" as="sourcePoint" />
            <mxPoint x="390" y="140" as="targetPoint" />
            <Array as="points">
              <mxPoint x="440" y="130" />
            </Array>
          </mxGeometry>
        </mxCell>
        <mxCell id="rzDTPgX-3D8ninCqntxf-49" value="" style="fontSize=12;html=1;endArrow=ERzeroToMany;endFill=1;rounded=0;exitX=0.449;exitY=-0.017;exitDx=0;exitDy=0;entryX=0.5;entryY=1;entryDx=0;entryDy=0;exitPerimeter=0;" parent="1" edge="1" target="WfKNFHAe2BFTTqRnDd-h-15" source="WfKNFHAe2BFTTqRnDd-h-7">
          <mxGeometry width="100" height="100" relative="1" as="geometry">
            <mxPoint x="265.6" y="243.63" as="sourcePoint" />
            <mxPoint x="250.00000000000009" y="339.9999999999999" as="targetPoint" />
          </mxGeometry>
        </mxCell>
        <mxCell id="WfKNFHAe2BFTTqRnDd-h-4" value="" style="endArrow=ERzeroToMany;startArrow=ERone;endFill=1;startFill=0;entryX=0.5;entryY=0;entryDx=0;entryDy=0;exitX=0;exitY=1;exitDx=0;exitDy=0;" parent="1" target="WfKNFHAe2BFTTqRnDd-h-14" edge="1" source="WfKNFHAe2BFTTqRnDd-h-2">
          <mxGeometry width="100" height="100" relative="1" as="geometry">
            <mxPoint x="60" y="70" as="sourcePoint" />
            <mxPoint x="40" y="40" as="targetPoint" />
            <Array as="points">
              <mxPoint x="140" y="80" />
            </Array>
          </mxGeometry>
        </mxCell>
        <mxCell id="WfKNFHAe2BFTTqRnDd-h-1" value="CATALOGO" style="swimlane;childLayout=stackLayout;horizontal=1;startSize=30;horizontalStack=0;rounded=1;fontSize=14;fontStyle=0;strokeWidth=2;resizeParent=0;resizeLast=1;shadow=0;dashed=0;align=center;arcSize=8;whiteSpace=wrap;html=1;" parent="1" vertex="1">
          <mxGeometry x="155" y="-200" width="420" height="270" as="geometry">
            <mxRectangle x="125" y="-180" width="130" height="40" as="alternateBounds" />
          </mxGeometry>
        </mxCell>
        <mxCell id="WfKNFHAe2BFTTqRnDd-h-2" value="&lt;div&gt;idCatalogo: INT PK NN AI&lt;br&gt;&lt;/div&gt;&lt;div&gt;titulo (varchar )(100)&lt;br&gt;&lt;/div&gt;&lt;div&gt;&lt;div&gt;resumen: TEXT&lt;/div&gt;&lt;/div&gt;&lt;div&gt;poster: (VARCHAR) (255)&lt;/div&gt;&lt;div&gt;fecha estreno (varchar)(10)&lt;/div&gt;&lt;div&gt;nombreCategoria (Varchar)(20)&lt;/div&gt;&lt;div&gt;&lt;div style=&quot;border-color: var(--border-color);&quot;&gt;&lt;div style=&quot;border-color: var(--border-color);&quot;&gt;idCategoria INT,&lt;/div&gt;&lt;div style=&quot;border-color: var(--border-color);&quot;&gt;FOREIGN KEY (idCategoria) REFERENCES Categorias (idCategoria) ,&lt;/div&gt;&lt;div style=&quot;border-color: var(--border-color);&quot;&gt;&lt;br&gt;&lt;/div&gt;&lt;div style=&quot;border-color: var(--border-color);&quot;&gt;&lt;div style=&quot;border-color: var(--border-color);&quot;&gt;&lt;br&gt;&lt;/div&gt;&lt;div style=&quot;border-color: var(--border-color);&quot;&gt;&lt;br&gt;&lt;/div&gt;&lt;/div&gt;&lt;/div&gt;&lt;/div&gt;&lt;div&gt;&lt;br&gt;&lt;/div&gt;" style="align=left;strokeColor=none;fillColor=none;spacingLeft=4;fontSize=12;verticalAlign=top;resizable=0;rotatable=0;part=1;html=1;" parent="WfKNFHAe2BFTTqRnDd-h-1" vertex="1">
          <mxGeometry y="30" width="420" height="240" as="geometry" />
        </mxCell>
        <mxCell id="WfKNFHAe2BFTTqRnDd-h-5" value="Categorias" style="swimlane;childLayout=stackLayout;horizontal=1;startSize=30;horizontalStack=0;rounded=1;fontSize=14;fontStyle=0;strokeWidth=2;resizeParent=0;resizeLast=1;shadow=0;dashed=0;align=center;arcSize=8;whiteSpace=wrap;html=1;" parent="1" vertex="1">
          <mxGeometry x="640" y="120" width="185" height="120" as="geometry">
            <mxRectangle x="940" y="340" width="130" height="40" as="alternateBounds" />
          </mxGeometry>
        </mxCell>
        <mxCell id="WfKNFHAe2BFTTqRnDd-h-6" value="&lt;div&gt;idCategoria INT PK NN AI&lt;br&gt;&lt;/div&gt;&lt;div&gt;nombreCategoria: VARCHAR(30)&lt;br&gt;&lt;/div&gt;" style="align=left;strokeColor=none;fillColor=none;spacingLeft=4;fontSize=12;verticalAlign=top;resizable=0;rotatable=0;part=1;html=1;" parent="WfKNFHAe2BFTTqRnDd-h-5" vertex="1">
          <mxGeometry y="30" width="185" height="90" as="geometry" />
        </mxCell>
        <mxCell id="WfKNFHAe2BFTTqRnDd-h-7" value="Reparto" style="swimlane;childLayout=stackLayout;horizontal=1;startSize=30;horizontalStack=0;rounded=1;fontSize=14;fontStyle=0;strokeWidth=2;resizeParent=0;resizeLast=1;shadow=0;dashed=0;align=center;arcSize=8;whiteSpace=wrap;html=1;" parent="1" vertex="1">
          <mxGeometry x="40" y="340" width="185" height="120" as="geometry">
            <mxRectangle x="940" y="340" width="130" height="40" as="alternateBounds" />
          </mxGeometry>
        </mxCell>
        <mxCell id="WfKNFHAe2BFTTqRnDd-h-8" value="&lt;div&gt;idReparto: INT PK NN AI&lt;br&gt;&lt;/div&gt;&lt;div&gt;nombreActores: VARCHAR(100)&lt;br&gt;&lt;/div&gt;" style="align=left;strokeColor=none;fillColor=none;spacingLeft=4;fontSize=12;verticalAlign=top;resizable=0;rotatable=0;part=1;html=1;" parent="WfKNFHAe2BFTTqRnDd-h-7" vertex="1">
          <mxGeometry y="30" width="185" height="90" as="geometry" />
        </mxCell>
        <mxCell id="WfKNFHAe2BFTTqRnDd-h-9" value="Generos" style="swimlane;childLayout=stackLayout;horizontal=1;startSize=30;horizontalStack=0;rounded=1;fontSize=14;fontStyle=0;strokeWidth=2;resizeParent=0;resizeLast=1;shadow=0;dashed=0;align=center;arcSize=8;whiteSpace=wrap;html=1;" parent="1" vertex="1">
          <mxGeometry x="380" y="410" width="185" height="120" as="geometry">
            <mxRectangle x="940" y="340" width="130" height="40" as="alternateBounds" />
          </mxGeometry>
        </mxCell>
        <mxCell id="WfKNFHAe2BFTTqRnDd-h-10" value="&lt;div&gt;idGeneros INT PK NN AI&lt;br&gt;&lt;/div&gt;&lt;div&gt;nombreGeneros: VARCHAR(30)&lt;br&gt;&lt;/div&gt;" style="align=left;strokeColor=none;fillColor=none;spacingLeft=4;fontSize=12;verticalAlign=top;resizable=0;rotatable=0;part=1;html=1;" parent="WfKNFHAe2BFTTqRnDd-h-9" vertex="1">
          <mxGeometry y="30" width="185" height="90" as="geometry" />
        </mxCell>
        <mxCell id="WfKNFHAe2BFTTqRnDd-h-11" value="GenCATALOGO" style="swimlane;childLayout=stackLayout;horizontal=1;startSize=30;horizontalStack=0;rounded=1;fontSize=14;fontStyle=0;strokeWidth=2;resizeParent=0;resizeLast=1;shadow=0;dashed=0;align=center;arcSize=8;whiteSpace=wrap;html=1;" parent="1" vertex="1">
          <mxGeometry x="390" y="200" width="185" height="120" as="geometry">
            <mxRectangle x="940" y="340" width="130" height="40" as="alternateBounds" />
          </mxGeometry>
        </mxCell>
        <mxCell id="WfKNFHAe2BFTTqRnDd-h-12" value="&lt;div&gt;idGenCatalogo INT PK NN AI&lt;br&gt;&lt;/div&gt;&lt;div&gt;&lt;div style=&quot;border-color: var(--border-color);&quot;&gt;IdGenero INT,&lt;/div&gt;&lt;div style=&quot;border-color: var(--border-color);&quot;&gt;FOREIGN KEY (idGenero) REFERENCES Generos (idGenero),&lt;/div&gt;&lt;/div&gt;&lt;div&gt;&lt;br&gt;&lt;/div&gt;" style="align=left;strokeColor=none;fillColor=none;spacingLeft=4;fontSize=12;verticalAlign=top;resizable=0;rotatable=0;part=1;html=1;" parent="WfKNFHAe2BFTTqRnDd-h-11" vertex="1">
          <mxGeometry y="30" width="185" height="90" as="geometry" />
        </mxCell>
        <mxCell id="WfKNFHAe2BFTTqRnDd-h-13" value="&lt;div&gt;&lt;br&gt;&lt;/div&gt;" style="align=left;strokeColor=none;fillColor=none;spacingLeft=4;fontSize=12;verticalAlign=top;resizable=0;rotatable=0;part=1;html=1;" parent="WfKNFHAe2BFTTqRnDd-h-11" vertex="1">
          <mxGeometry y="120" width="185" as="geometry" />
        </mxCell>
        <mxCell id="WfKNFHAe2BFTTqRnDd-h-14" value="repCATALOGO" style="swimlane;childLayout=stackLayout;horizontal=1;startSize=30;horizontalStack=0;rounded=1;fontSize=14;fontStyle=0;strokeWidth=2;resizeParent=0;resizeLast=1;shadow=0;dashed=0;align=center;arcSize=8;whiteSpace=wrap;html=1;" parent="1" vertex="1">
          <mxGeometry x="25" y="120" width="185" height="120" as="geometry">
            <mxRectangle x="940" y="340" width="130" height="40" as="alternateBounds" />
          </mxGeometry>
        </mxCell>
        <mxCell id="WfKNFHAe2BFTTqRnDd-h-15" value="&lt;div&gt;idRepCatalogo INT PK NN AI&lt;br&gt;&lt;/div&gt;&lt;div&gt;idCatalogo INT,&lt;/div&gt;&lt;div&gt;FOREIGN KEY (idCatalogo) REFERENCES Catalogo (idCatalogo)&lt;br&gt;&lt;/div&gt;&lt;div&gt;&lt;div style=&quot;border-color: var(--border-color);&quot;&gt;idReparto INT,&lt;/div&gt;&lt;div style=&quot;border-color: var(--border-color);&quot;&gt;FOREIGN KEY (idReparto) REFERENCES Reparto (idReparto),&lt;/div&gt;&lt;/div&gt;" style="align=left;strokeColor=none;fillColor=none;spacingLeft=4;fontSize=12;verticalAlign=top;resizable=0;rotatable=0;part=1;html=1;" parent="WfKNFHAe2BFTTqRnDd-h-14" vertex="1">
          <mxGeometry y="30" width="185" height="90" as="geometry" />
        </mxCell>
        <mxCell id="WfKNFHAe2BFTTqRnDd-h-20" value="CATALOGO" style="rounded=1;whiteSpace=wrap;html=1;fillColor=#dae8fc;strokeColor=#6c8ebf;" parent="1" vertex="1">
          <mxGeometry x="380" y="770" width="100" height="40" as="geometry" />
        </mxCell>
        <mxCell id="WfKNFHAe2BFTTqRnDd-h-21" value="RESUMEN" style="ellipse;whiteSpace=wrap;html=1;fillColor=#d5e8d4;strokeColor=#82b366;" parent="1" vertex="1">
          <mxGeometry x="250" y="680" width="100" height="40" as="geometry" />
        </mxCell>
        <mxCell id="WfKNFHAe2BFTTqRnDd-h-22" value="TITULO" style="ellipse;whiteSpace=wrap;html=1;fillColor=#d5e8d4;strokeColor=#82b366;" parent="1" vertex="1">
          <mxGeometry x="370" y="670" width="100" height="40" as="geometry" />
        </mxCell>
        <mxCell id="WfKNFHAe2BFTTqRnDd-h-23" value="IDCATALOGO" style="ellipse;whiteSpace=wrap;html=1;fillColor=#d5e8d4;strokeColor=#82b366;" parent="1" vertex="1">
          <mxGeometry x="480" y="690" width="100" height="40" as="geometry" />
        </mxCell>
        <mxCell id="WfKNFHAe2BFTTqRnDd-h-24" value="POSTER" style="ellipse;whiteSpace=wrap;html=1;fillColor=#d5e8d4;strokeColor=#82b366;" parent="1" vertex="1">
          <mxGeometry x="210" y="750" width="100" height="40" as="geometry" />
        </mxCell>
        <mxCell id="WfKNFHAe2BFTTqRnDd-h-25" value="IDCATEGORIA FK" style="ellipse;whiteSpace=wrap;html=1;fillColor=#d5e8d4;strokeColor=#82b366;" parent="1" vertex="1">
          <mxGeometry x="540" y="740" width="100" height="40" as="geometry" />
        </mxCell>
        <mxCell id="WfKNFHAe2BFTTqRnDd-h-26" value="FechaDeEstreno" style="ellipse;whiteSpace=wrap;html=1;fillColor=#d5e8d4;strokeColor=#82b366;" parent="1" vertex="1">
          <mxGeometry x="225" y="810" width="100" height="40" as="geometry" />
        </mxCell>
        <mxCell id="WfKNFHAe2BFTTqRnDd-h-27" value="" style="endArrow=none;html=1;rounded=0;entryX=0.558;entryY=1.029;entryDx=0;entryDy=0;entryPerimeter=0;exitX=0;exitY=0.25;exitDx=0;exitDy=0;" parent="1" source="WfKNFHAe2BFTTqRnDd-h-20" target="WfKNFHAe2BFTTqRnDd-h-21" edge="1">
          <mxGeometry width="50" height="50" relative="1" as="geometry">
            <mxPoint x="770" y="370" as="sourcePoint" />
            <mxPoint x="820" y="320" as="targetPoint" />
          </mxGeometry>
        </mxCell>
        <mxCell id="WfKNFHAe2BFTTqRnDd-h-28" value="" style="endArrow=none;html=1;rounded=0;entryX=0;entryY=0.75;entryDx=0;entryDy=0;exitX=0.6;exitY=0;exitDx=0;exitDy=0;exitPerimeter=0;" parent="1" source="WfKNFHAe2BFTTqRnDd-h-26" target="WfKNFHAe2BFTTqRnDd-h-20" edge="1">
          <mxGeometry width="50" height="50" relative="1" as="geometry">
            <mxPoint x="532.1" y="764.4200000000001" as="sourcePoint" />
            <mxPoint x="468.1" y="715.4200000000001" as="targetPoint" />
          </mxGeometry>
        </mxCell>
        <mxCell id="WfKNFHAe2BFTTqRnDd-h-29" value="" style="endArrow=none;html=1;rounded=0;entryX=1;entryY=0.5;entryDx=0;entryDy=0;exitX=0.1;exitY=1;exitDx=0;exitDy=0;exitPerimeter=0;" parent="1" source="WfKNFHAe2BFTTqRnDd-h-25" target="WfKNFHAe2BFTTqRnDd-h-20" edge="1">
          <mxGeometry width="50" height="50" relative="1" as="geometry">
            <mxPoint x="460" y="855" as="sourcePoint" />
            <mxPoint x="480" y="795" as="targetPoint" />
          </mxGeometry>
        </mxCell>
        <mxCell id="WfKNFHAe2BFTTqRnDd-h-30" value="" style="endArrow=none;html=1;rounded=0;entryX=0;entryY=0.5;entryDx=0;entryDy=0;exitX=1;exitY=0.5;exitDx=0;exitDy=0;" parent="1" source="WfKNFHAe2BFTTqRnDd-h-24" target="WfKNFHAe2BFTTqRnDd-h-20" edge="1">
          <mxGeometry width="50" height="50" relative="1" as="geometry">
            <mxPoint x="360" y="790" as="sourcePoint" />
            <mxPoint x="472.5" y="787.5" as="targetPoint" />
          </mxGeometry>
        </mxCell>
        <mxCell id="WfKNFHAe2BFTTqRnDd-h-31" value="" style="endArrow=none;html=1;rounded=0;entryX=1;entryY=0;entryDx=0;entryDy=0;" parent="1" source="WfKNFHAe2BFTTqRnDd-h-23" target="WfKNFHAe2BFTTqRnDd-h-20" edge="1">
          <mxGeometry width="50" height="50" relative="1" as="geometry">
            <mxPoint x="550" y="780" as="sourcePoint" />
            <mxPoint x="490" y="770" as="targetPoint" />
          </mxGeometry>
        </mxCell>
        <mxCell id="WfKNFHAe2BFTTqRnDd-h-32" value="" style="endArrow=none;html=1;rounded=0;entryX=0.5;entryY=1;entryDx=0;entryDy=0;exitX=0.5;exitY=0;exitDx=0;exitDy=0;" parent="1" source="WfKNFHAe2BFTTqRnDd-h-20" target="WfKNFHAe2BFTTqRnDd-h-22" edge="1">
          <mxGeometry width="50" height="50" relative="1" as="geometry">
            <mxPoint x="570" y="400" as="sourcePoint" />
            <mxPoint x="510" y="390" as="targetPoint" />
          </mxGeometry>
        </mxCell>
        <mxCell id="WfKNFHAe2BFTTqRnDd-h-41" value="REPCATALOGO" style="rounded=1;whiteSpace=wrap;html=1;fillColor=#dae8fc;strokeColor=#6c8ebf;" parent="1" vertex="1">
          <mxGeometry x="170" y="950" width="100" height="40" as="geometry" />
        </mxCell>
        <mxCell id="WfKNFHAe2BFTTqRnDd-h-42" value="" style="endArrow=none;html=1;rounded=0;entryX=0;entryY=0;entryDx=0;entryDy=0;" parent="1" source="WfKNFHAe2BFTTqRnDd-h-41" target="WfKNFHAe2BFTTqRnDd-h-45" edge="1">
          <mxGeometry width="50" height="50" relative="1" as="geometry">
            <mxPoint x="370" y="981" as="sourcePoint" />
            <mxPoint x="280" y="1009" as="targetPoint" />
          </mxGeometry>
        </mxCell>
        <mxCell id="WfKNFHAe2BFTTqRnDd-h-43" value="IDREPCATALOGO" style="ellipse;whiteSpace=wrap;html=1;fillColor=#d5e8d4;strokeColor=#82b366;" parent="1" vertex="1">
          <mxGeometry x="60" y="1030" width="120" height="40" as="geometry" />
        </mxCell>
        <mxCell id="WfKNFHAe2BFTTqRnDd-h-45" value="IDREPARTO FK" style="ellipse;whiteSpace=wrap;html=1;fillColor=#d5e8d4;strokeColor=#82b366;" parent="1" vertex="1">
          <mxGeometry x="280" y="1030" width="100" height="40" as="geometry" />
        </mxCell>
        <mxCell id="WfKNFHAe2BFTTqRnDd-h-47" value="" style="endArrow=none;html=1;rounded=0;entryX=0.5;entryY=0;entryDx=0;entryDy=0;exitX=0.25;exitY=1;exitDx=0;exitDy=0;" parent="1" source="WfKNFHAe2BFTTqRnDd-h-41" target="WfKNFHAe2BFTTqRnDd-h-43" edge="1">
          <mxGeometry width="50" height="50" relative="1" as="geometry">
            <mxPoint x="360" y="882" as="sourcePoint" />
            <mxPoint x="270" y="910" as="targetPoint" />
          </mxGeometry>
        </mxCell>
        <mxCell id="WfKNFHAe2BFTTqRnDd-h-48" value="REPARTO" style="rounded=1;whiteSpace=wrap;html=1;fillColor=#dae8fc;strokeColor=#6c8ebf;" parent="1" vertex="1">
          <mxGeometry x="170" y="1100" width="100" height="40" as="geometry" />
        </mxCell>
        <mxCell id="WfKNFHAe2BFTTqRnDd-h-49" value="" style="endArrow=none;html=1;rounded=0;entryX=0;entryY=0;entryDx=0;entryDy=0;exitX=0.75;exitY=1;exitDx=0;exitDy=0;" parent="1" source="WfKNFHAe2BFTTqRnDd-h-48" target="WfKNFHAe2BFTTqRnDd-h-52" edge="1">
          <mxGeometry width="50" height="50" relative="1" as="geometry">
            <mxPoint x="360" y="1251" as="sourcePoint" />
            <mxPoint x="270" y="1279" as="targetPoint" />
          </mxGeometry>
        </mxCell>
        <mxCell id="WfKNFHAe2BFTTqRnDd-h-50" value="IDREPARTO" style="ellipse;whiteSpace=wrap;html=1;fillColor=#d5e8d4;strokeColor=#82b366;" parent="1" vertex="1">
          <mxGeometry x="80" y="1180" width="100" height="40" as="geometry" />
        </mxCell>
        <mxCell id="WfKNFHAe2BFTTqRnDd-h-52" value="NOMBREACTORES" style="ellipse;whiteSpace=wrap;html=1;fillColor=#d5e8d4;strokeColor=#82b366;" parent="1" vertex="1">
          <mxGeometry x="250" y="1180" width="120" height="40" as="geometry" />
        </mxCell>
        <mxCell id="WfKNFHAe2BFTTqRnDd-h-54" value="" style="endArrow=none;html=1;rounded=0;entryX=0.5;entryY=0;entryDx=0;entryDy=0;exitX=0.25;exitY=1;exitDx=0;exitDy=0;" parent="1" source="WfKNFHAe2BFTTqRnDd-h-48" target="WfKNFHAe2BFTTqRnDd-h-50" edge="1">
          <mxGeometry width="50" height="50" relative="1" as="geometry">
            <mxPoint x="350" y="1152" as="sourcePoint" />
            <mxPoint x="260" y="1180" as="targetPoint" />
          </mxGeometry>
        </mxCell>
        <mxCell id="WfKNFHAe2BFTTqRnDd-h-56" value="GENCATALOGO" style="rounded=1;whiteSpace=wrap;html=1;fillColor=#dae8fc;strokeColor=#6c8ebf;" parent="1" vertex="1">
          <mxGeometry x="590" y="950" width="100" height="40" as="geometry" />
        </mxCell>
        <mxCell id="WfKNFHAe2BFTTqRnDd-h-57" value="" style="endArrow=none;html=1;rounded=0;entryX=0;entryY=0;entryDx=0;entryDy=0;" parent="1" source="WfKNFHAe2BFTTqRnDd-h-56" target="WfKNFHAe2BFTTqRnDd-h-58" edge="1">
          <mxGeometry width="50" height="50" relative="1" as="geometry">
            <mxPoint x="790" y="981" as="sourcePoint" />
            <mxPoint x="700" y="1009" as="targetPoint" />
          </mxGeometry>
        </mxCell>
        <mxCell id="WfKNFHAe2BFTTqRnDd-h-58" value="IDGENERO FK" style="ellipse;whiteSpace=wrap;html=1;fillColor=#d5e8d4;strokeColor=#82b366;" parent="1" vertex="1">
          <mxGeometry x="700" y="1030" width="100" height="40" as="geometry" />
        </mxCell>
        <mxCell id="WfKNFHAe2BFTTqRnDd-h-60" value="" style="endArrow=none;html=1;rounded=0;entryX=0.5;entryY=0;entryDx=0;entryDy=0;exitX=0.25;exitY=1;exitDx=0;exitDy=0;" parent="1" source="WfKNFHAe2BFTTqRnDd-h-56" edge="1">
          <mxGeometry width="50" height="50" relative="1" as="geometry">
            <mxPoint x="780" y="882" as="sourcePoint" />
            <mxPoint x="540" y="1030" as="targetPoint" />
          </mxGeometry>
        </mxCell>
        <mxCell id="WfKNFHAe2BFTTqRnDd-h-61" value="GENERO" style="rounded=1;whiteSpace=wrap;html=1;fillColor=#dae8fc;strokeColor=#6c8ebf;" parent="1" vertex="1">
          <mxGeometry x="590" y="1100" width="100" height="40" as="geometry" />
        </mxCell>
        <mxCell id="WfKNFHAe2BFTTqRnDd-h-62" value="" style="endArrow=none;html=1;rounded=0;entryX=0;entryY=0;entryDx=0;entryDy=0;exitX=0.75;exitY=1;exitDx=0;exitDy=0;" parent="1" source="WfKNFHAe2BFTTqRnDd-h-61" target="WfKNFHAe2BFTTqRnDd-h-64" edge="1">
          <mxGeometry width="50" height="50" relative="1" as="geometry">
            <mxPoint x="780" y="1251" as="sourcePoint" />
            <mxPoint x="690" y="1279" as="targetPoint" />
          </mxGeometry>
        </mxCell>
        <mxCell id="WfKNFHAe2BFTTqRnDd-h-63" value="IDGENERO" style="ellipse;whiteSpace=wrap;html=1;fillColor=#d5e8d4;strokeColor=#82b366;" parent="1" vertex="1">
          <mxGeometry x="500" y="1180" width="100" height="40" as="geometry" />
        </mxCell>
        <mxCell id="WfKNFHAe2BFTTqRnDd-h-64" value="NOMBREGENERO" style="ellipse;whiteSpace=wrap;html=1;fillColor=#d5e8d4;strokeColor=#82b366;" parent="1" vertex="1">
          <mxGeometry x="670" y="1180" width="120" height="40" as="geometry" />
        </mxCell>
        <mxCell id="WfKNFHAe2BFTTqRnDd-h-65" value="" style="endArrow=none;html=1;rounded=0;entryX=0.5;entryY=0;entryDx=0;entryDy=0;exitX=0.25;exitY=1;exitDx=0;exitDy=0;" parent="1" source="WfKNFHAe2BFTTqRnDd-h-61" target="WfKNFHAe2BFTTqRnDd-h-63" edge="1">
          <mxGeometry width="50" height="50" relative="1" as="geometry">
            <mxPoint x="770" y="1152" as="sourcePoint" />
            <mxPoint x="680" y="1180" as="targetPoint" />
          </mxGeometry>
        </mxCell>
        <mxCell id="WfKNFHAe2BFTTqRnDd-h-66" value="IDGENCATALOGO" style="ellipse;whiteSpace=wrap;html=1;fillColor=#d5e8d4;strokeColor=#82b366;" parent="1" vertex="1">
          <mxGeometry x="490" y="1030" width="120" height="40" as="geometry" />
        </mxCell>
        <mxCell id="WfKNFHAe2BFTTqRnDd-h-67" value="CATEGORIA" style="rounded=1;whiteSpace=wrap;html=1;fillColor=#dae8fc;strokeColor=#6c8ebf;" parent="1" vertex="1">
          <mxGeometry x="382.5" y="860" width="100" height="40" as="geometry" />
        </mxCell>
        <mxCell id="WfKNFHAe2BFTTqRnDd-h-68" value="" style="endArrow=none;html=1;rounded=0;entryX=0;entryY=0;entryDx=0;entryDy=0;" parent="1" source="WfKNFHAe2BFTTqRnDd-h-67" target="WfKNFHAe2BFTTqRnDd-h-70" edge="1">
          <mxGeometry width="50" height="50" relative="1" as="geometry">
            <mxPoint x="582.5" y="871" as="sourcePoint" />
            <mxPoint x="492.5" y="899" as="targetPoint" />
          </mxGeometry>
        </mxCell>
        <mxCell id="WfKNFHAe2BFTTqRnDd-h-69" value="IDCATEGORIA" style="ellipse;whiteSpace=wrap;html=1;fillColor=#d5e8d4;strokeColor=#82b366;" parent="1" vertex="1">
          <mxGeometry x="300" y="920" width="120" height="40" as="geometry" />
        </mxCell>
        <mxCell id="WfKNFHAe2BFTTqRnDd-h-70" value="NOMBRECATEGORIA" style="ellipse;whiteSpace=wrap;html=1;fillColor=#d5e8d4;strokeColor=#82b366;" parent="1" vertex="1">
          <mxGeometry x="460" y="920" width="130" height="40" as="geometry" />
        </mxCell>
        <mxCell id="WfKNFHAe2BFTTqRnDd-h-71" value="" style="endArrow=none;html=1;rounded=0;entryX=0.5;entryY=0;entryDx=0;entryDy=0;exitX=0.25;exitY=1;exitDx=0;exitDy=0;" parent="1" source="WfKNFHAe2BFTTqRnDd-h-67" target="WfKNFHAe2BFTTqRnDd-h-69" edge="1">
          <mxGeometry width="50" height="50" relative="1" as="geometry">
            <mxPoint x="295" y="940" as="sourcePoint" />
            <mxPoint x="402.5" y="800" as="targetPoint" />
          </mxGeometry>
        </mxCell>
        <mxCell id="WfKNFHAe2BFTTqRnDd-h-72" value="" style="fontSize=12;html=1;endArrow=ERoneToMany;rounded=0;entryX=0.5;entryY=1;entryDx=0;entryDy=0;entryPerimeter=0;" parent="1" source="WfKNFHAe2BFTTqRnDd-h-48" target="WfKNFHAe2BFTTqRnDd-h-41" edge="1">
          <mxGeometry width="100" height="100" relative="1" as="geometry">
            <mxPoint x="240" y="1050" as="sourcePoint" />
            <mxPoint x="220" y="1000" as="targetPoint" />
            <Array as="points">
              <mxPoint x="220" y="1050" />
            </Array>
          </mxGeometry>
        </mxCell>
        <mxCell id="WfKNFHAe2BFTTqRnDd-h-73" value="" style="fontSize=12;html=1;endArrow=ERoneToMany;rounded=0;entryX=0.5;entryY=0;entryDx=0;entryDy=0;exitX=0;exitY=1;exitDx=0;exitDy=0;" parent="1" source="WfKNFHAe2BFTTqRnDd-h-20" target="WfKNFHAe2BFTTqRnDd-h-41" edge="1">
          <mxGeometry width="100" height="100" relative="1" as="geometry">
            <mxPoint x="160" y="890" as="sourcePoint" />
            <mxPoint x="410" y="810" as="targetPoint" />
          </mxGeometry>
        </mxCell>
        <mxCell id="WfKNFHAe2BFTTqRnDd-h-75" value="" style="endArrow=none;html=1;rounded=0;entryX=0.5;entryY=0;entryDx=0;entryDy=0;exitX=0.5;exitY=1;exitDx=0;exitDy=0;" parent="1" source="WfKNFHAe2BFTTqRnDd-h-20" target="WfKNFHAe2BFTTqRnDd-h-67" edge="1">
          <mxGeometry width="50" height="50" relative="1" as="geometry">
            <mxPoint x="490" y="820" as="sourcePoint" />
            <mxPoint x="415" y="860" as="targetPoint" />
          </mxGeometry>
        </mxCell>
        <mxCell id="WfKNFHAe2BFTTqRnDd-h-76" value="" style="endArrow=none;html=1;rounded=0;entryX=1;entryY=1;entryDx=0;entryDy=0;exitX=0;exitY=0;exitDx=0;exitDy=0;" parent="1" source="WfKNFHAe2BFTTqRnDd-h-5" target="WfKNFHAe2BFTTqRnDd-h-2" edge="1">
          <mxGeometry width="50" height="50" relative="1" as="geometry">
            <mxPoint x="670" y="40" as="sourcePoint" />
            <mxPoint x="595" y="80" as="targetPoint" />
          </mxGeometry>
        </mxCell>
        <mxCell id="WfKNFHAe2BFTTqRnDd-h-79" value="" style="fontSize=12;html=1;endArrow=ERoneToMany;rounded=0;entryX=0.5;entryY=1;entryDx=0;entryDy=0;exitX=0.5;exitY=0;exitDx=0;exitDy=0;" parent="1" source="WfKNFHAe2BFTTqRnDd-h-61" target="WfKNFHAe2BFTTqRnDd-h-56" edge="1">
          <mxGeometry width="100" height="100" relative="1" as="geometry">
            <mxPoint x="680" y="1070" as="sourcePoint" />
            <mxPoint x="930" y="980" as="targetPoint" />
          </mxGeometry>
        </mxCell>
        <mxCell id="PlNQ0RnR4Rf8O1rO38mR-2" style="edgeStyle=orthogonalEdgeStyle;rounded=0;orthogonalLoop=1;jettySize=auto;html=1;exitX=0;exitY=1;exitDx=0;exitDy=0;" edge="1" parent="1" source="WfKNFHAe2BFTTqRnDd-h-2">
          <mxGeometry relative="1" as="geometry">
            <mxPoint x="160" y="80" as="targetPoint" />
          </mxGeometry>
        </mxCell>
        <mxCell id="rzDTPgX-3D8ninCqntxf-45" value="" style="fontSize=12;html=1;endArrow=ERzeroToMany;endFill=1;rounded=0;exitX=0.5;exitY=0;exitDx=0;exitDy=0;entryX=0.454;entryY=0.989;entryDx=0;entryDy=0;entryPerimeter=0;" parent="1" source="WfKNFHAe2BFTTqRnDd-h-9" edge="1" target="WfKNFHAe2BFTTqRnDd-h-12">
          <mxGeometry width="100" height="100" relative="1" as="geometry">
            <mxPoint x="424.8571428571429" y="360" as="sourcePoint" />
            <mxPoint x="412" y="410" as="targetPoint" />
            <Array as="points">
              <mxPoint x="490" y="360" />
            </Array>
          </mxGeometry>
        </mxCell>
        <mxCell id="PlNQ0RnR4Rf8O1rO38mR-3" value="" style="fontSize=12;html=1;endArrow=ERoneToMany;rounded=0;entryX=0.5;entryY=0;entryDx=0;entryDy=0;exitX=0.92;exitY=0.975;exitDx=0;exitDy=0;exitPerimeter=0;" edge="1" parent="1" source="WfKNFHAe2BFTTqRnDd-h-20" target="WfKNFHAe2BFTTqRnDd-h-56">
          <mxGeometry width="100" height="100" relative="1" as="geometry">
            <mxPoint x="500" y="880" as="sourcePoint" />
            <mxPoint x="272" y="1060" as="targetPoint" />
            <Array as="points" />
          </mxGeometry>
        </mxCell>
        <mxCell id="PlNQ0RnR4Rf8O1rO38mR-4" value="IDCATALOGO" style="ellipse;whiteSpace=wrap;html=1;fillColor=#d5e8d4;strokeColor=#82b366;" vertex="1" parent="1">
          <mxGeometry x="40" y="910" width="100" height="40" as="geometry" />
        </mxCell>
        <mxCell id="PlNQ0RnR4Rf8O1rO38mR-5" value="" style="endArrow=none;html=1;rounded=0;entryX=1;entryY=0.5;entryDx=0;entryDy=0;exitX=0;exitY=0;exitDx=0;exitDy=0;" edge="1" parent="1" source="WfKNFHAe2BFTTqRnDd-h-41" target="PlNQ0RnR4Rf8O1rO38mR-4">
          <mxGeometry width="50" height="50" relative="1" as="geometry">
            <mxPoint x="130" y="960" as="sourcePoint" />
            <mxPoint x="55" y="1000" as="targetPoint" />
          </mxGeometry>
        </mxCell>
        <mxCell id="PlNQ0RnR4Rf8O1rO38mR-6" value="IDCATALOGO" style="ellipse;whiteSpace=wrap;html=1;fillColor=#d5e8d4;strokeColor=#82b366;" vertex="1" parent="1">
          <mxGeometry x="730" y="930" width="100" height="40" as="geometry" />
        </mxCell>
        <mxCell id="PlNQ0RnR4Rf8O1rO38mR-7" value="" style="endArrow=none;html=1;rounded=0;exitX=0;exitY=0.5;exitDx=0;exitDy=0;entryX=1;entryY=0;entryDx=0;entryDy=0;" edge="1" parent="1" source="PlNQ0RnR4Rf8O1rO38mR-6" target="WfKNFHAe2BFTTqRnDd-h-56">
          <mxGeometry width="50" height="50" relative="1" as="geometry">
            <mxPoint x="700" y="930" as="sourcePoint" />
            <mxPoint x="680" y="960" as="targetPoint" />
            <Array as="points" />
          </mxGeometry>
        </mxCell>
        <mxCell id="PlNQ0RnR4Rf8O1rO38mR-8" value="NOMBRECATEGORIA" style="ellipse;whiteSpace=wrap;html=1;fillColor=#d5e8d4;strokeColor=#82b366;" vertex="1" parent="1">
          <mxGeometry x="530" y="800" width="130" height="40" as="geometry" />
        </mxCell>
        <mxCell id="PlNQ0RnR4Rf8O1rO38mR-9" value="" style="endArrow=none;html=1;rounded=0;entryX=1;entryY=0.75;entryDx=0;entryDy=0;exitX=0;exitY=0.5;exitDx=0;exitDy=0;" edge="1" parent="1" source="PlNQ0RnR4Rf8O1rO38mR-8" target="WfKNFHAe2BFTTqRnDd-h-20">
          <mxGeometry width="50" height="50" relative="1" as="geometry">
            <mxPoint x="520" y="810" as="sourcePoint" />
            <mxPoint x="440" y="840" as="targetPoint" />
          </mxGeometry>
        </mxCell>
      </root>
    </mxGraphModel>
  </diagram>
</mxfile>
